<mxfile host="app.diagrams.net" modified="2024-02-16T11:20:55.075Z" agent="Mozilla/5.0 (Windows NT 10.0; Win64; x64) AppleWebKit/537.36 (KHTML, like Gecko) Chrome/121.0.0.0 Safari/537.36" etag="x0YmwkVslu87kyF2SzY4" version="23.0.2" type="device">
  <diagram name="Page-1" id="UmF1hBGN1C5rpxQa04Ap">
    <mxGraphModel dx="1050" dy="569" grid="1" gridSize="10" guides="1" tooltips="1" connect="1" arrows="1" fold="1" page="1" pageScale="1" pageWidth="827" pageHeight="1169" math="0" shadow="0">
      <root>
        <mxCell id="0" />
        <mxCell id="1" parent="0" />
        <mxCell id="JSI8Sby0DyJMvzg88k3_-1" value="" style="ellipse;whiteSpace=wrap;html=1;aspect=fixed;fillColor=#000000;strokeWidth=3;" vertex="1" parent="1">
          <mxGeometry x="160" y="120" width="40" height="40" as="geometry" />
        </mxCell>
        <mxCell id="JSI8Sby0DyJMvzg88k3_-2" value="&lt;b&gt;Login to the Faculty Contribution Management System&lt;/b&gt;" style="rounded=1;whiteSpace=wrap;html=1;strokeWidth=3;" vertex="1" parent="1">
          <mxGeometry x="310" y="110" width="246" height="60" as="geometry" />
        </mxCell>
        <mxCell id="JSI8Sby0DyJMvzg88k3_-3" value="" style="endArrow=classic;html=1;rounded=0;entryX=0;entryY=0.5;entryDx=0;entryDy=0;exitX=1;exitY=0.5;exitDx=0;exitDy=0;strokeWidth=3;" edge="1" parent="1" source="JSI8Sby0DyJMvzg88k3_-1" target="JSI8Sby0DyJMvzg88k3_-2">
          <mxGeometry width="50" height="50" relative="1" as="geometry">
            <mxPoint x="220" y="139.5" as="sourcePoint" />
            <mxPoint x="290" y="139.5" as="targetPoint" />
          </mxGeometry>
        </mxCell>
        <mxCell id="JSI8Sby0DyJMvzg88k3_-5" value="" style="endArrow=classic;html=1;rounded=0;exitX=1;exitY=0.5;exitDx=0;exitDy=0;strokeWidth=3;" edge="1" parent="1">
          <mxGeometry width="50" height="50" relative="1" as="geometry">
            <mxPoint x="414" y="170" as="sourcePoint" />
            <mxPoint x="414" y="240" as="targetPoint" />
          </mxGeometry>
        </mxCell>
        <mxCell id="JSI8Sby0DyJMvzg88k3_-6" value="&lt;b&gt;Check User level and Permissions&lt;/b&gt;" style="rounded=1;whiteSpace=wrap;html=1;strokeWidth=3;" vertex="1" parent="1">
          <mxGeometry x="314" y="240" width="242" height="60" as="geometry" />
        </mxCell>
        <mxCell id="JSI8Sby0DyJMvzg88k3_-7" value="&lt;b style=&quot;border-color: var(--border-color); font-size: 10px;&quot;&gt;Check&lt;br style=&quot;border-color: var(--border-color);&quot;&gt;Permission&lt;/b&gt;" style="rhombus;whiteSpace=wrap;html=1;strokeWidth=3;" vertex="1" parent="1">
          <mxGeometry x="234" y="440" width="80" height="80" as="geometry" />
        </mxCell>
        <mxCell id="JSI8Sby0DyJMvzg88k3_-8" value="&lt;b style=&quot;border-color: var(--border-color); font-size: 10px;&quot;&gt;Check&lt;br style=&quot;border-color: var(--border-color);&quot;&gt;Permission&lt;/b&gt;" style="rhombus;whiteSpace=wrap;html=1;strokeWidth=3;" vertex="1" parent="1">
          <mxGeometry x="80" y="440" width="80" height="80" as="geometry" />
        </mxCell>
        <mxCell id="JSI8Sby0DyJMvzg88k3_-9" value="&lt;b style=&quot;border-color: var(--border-color); font-size: 10px;&quot;&gt;Check&lt;br style=&quot;border-color: var(--border-color);&quot;&gt;Permission&lt;/b&gt;&lt;b&gt;&lt;br&gt;&lt;/b&gt;" style="rhombus;whiteSpace=wrap;html=1;strokeWidth=3;" vertex="1" parent="1">
          <mxGeometry x="400" y="440" width="80" height="80" as="geometry" />
        </mxCell>
        <mxCell id="JSI8Sby0DyJMvzg88k3_-10" value="&lt;b style=&quot;font-size: 10px;&quot;&gt;Check&lt;br style=&quot;border-color: var(--border-color);&quot;&gt;Permission&lt;/b&gt;" style="rhombus;whiteSpace=wrap;html=1;strokeWidth=3;" vertex="1" parent="1">
          <mxGeometry x="560" y="440" width="80" height="80" as="geometry" />
        </mxCell>
        <mxCell id="JSI8Sby0DyJMvzg88k3_-11" value="&lt;b style=&quot;border-color: var(--border-color); font-size: 10px;&quot;&gt;Check&lt;br style=&quot;border-color: var(--border-color);&quot;&gt;Permission&lt;/b&gt;" style="rhombus;whiteSpace=wrap;html=1;strokeWidth=3;" vertex="1" parent="1">
          <mxGeometry x="720" y="440" width="80" height="80" as="geometry" />
        </mxCell>
        <mxCell id="JSI8Sby0DyJMvzg88k3_-12" value="" style="endArrow=none;html=1;rounded=0;strokeWidth=3;" edge="1" parent="1">
          <mxGeometry width="50" height="50" relative="1" as="geometry">
            <mxPoint x="120" y="360" as="sourcePoint" />
            <mxPoint x="760" y="360" as="targetPoint" />
          </mxGeometry>
        </mxCell>
        <mxCell id="JSI8Sby0DyJMvzg88k3_-13" value="" style="endArrow=classic;html=1;rounded=0;entryX=0.5;entryY=0;entryDx=0;entryDy=0;strokeWidth=3;" edge="1" parent="1" target="JSI8Sby0DyJMvzg88k3_-11">
          <mxGeometry width="50" height="50" relative="1" as="geometry">
            <mxPoint x="759.5" y="360" as="sourcePoint" />
            <mxPoint x="759.5" y="410" as="targetPoint" />
          </mxGeometry>
        </mxCell>
        <mxCell id="JSI8Sby0DyJMvzg88k3_-14" value="" style="endArrow=classic;html=1;rounded=0;entryX=0.5;entryY=0;entryDx=0;entryDy=0;strokeWidth=3;" edge="1" parent="1">
          <mxGeometry width="50" height="50" relative="1" as="geometry">
            <mxPoint x="119.5" y="360" as="sourcePoint" />
            <mxPoint x="120" y="440" as="targetPoint" />
          </mxGeometry>
        </mxCell>
        <mxCell id="JSI8Sby0DyJMvzg88k3_-15" value="" style="endArrow=classic;html=1;rounded=0;entryX=0.5;entryY=0;entryDx=0;entryDy=0;strokeWidth=3;" edge="1" parent="1">
          <mxGeometry width="50" height="50" relative="1" as="geometry">
            <mxPoint x="599.5" y="360" as="sourcePoint" />
            <mxPoint x="600" y="440" as="targetPoint" />
          </mxGeometry>
        </mxCell>
        <mxCell id="JSI8Sby0DyJMvzg88k3_-16" value="" style="endArrow=classic;html=1;rounded=0;entryX=0.5;entryY=0;entryDx=0;entryDy=0;strokeWidth=3;" edge="1" parent="1">
          <mxGeometry width="50" height="50" relative="1" as="geometry">
            <mxPoint x="439.5" y="360" as="sourcePoint" />
            <mxPoint x="440" y="440" as="targetPoint" />
          </mxGeometry>
        </mxCell>
        <mxCell id="JSI8Sby0DyJMvzg88k3_-17" value="" style="endArrow=classic;html=1;rounded=0;entryX=0.5;entryY=0;entryDx=0;entryDy=0;strokeWidth=3;" edge="1" parent="1">
          <mxGeometry width="50" height="50" relative="1" as="geometry">
            <mxPoint x="273.5" y="360" as="sourcePoint" />
            <mxPoint x="274" y="440" as="targetPoint" />
          </mxGeometry>
        </mxCell>
        <mxCell id="JSI8Sby0DyJMvzg88k3_-18" value="" style="endArrow=classic;html=1;rounded=0;entryX=0.5;entryY=0;entryDx=0;entryDy=0;exitX=0.413;exitY=1.05;exitDx=0;exitDy=0;exitPerimeter=0;strokeWidth=3;" edge="1" parent="1" source="JSI8Sby0DyJMvzg88k3_-6">
          <mxGeometry width="50" height="50" relative="1" as="geometry">
            <mxPoint x="410" y="310" as="sourcePoint" />
            <mxPoint x="413.5" y="360" as="targetPoint" />
          </mxGeometry>
        </mxCell>
        <mxCell id="JSI8Sby0DyJMvzg88k3_-19" value="" style="endArrow=none;html=1;rounded=0;strokeWidth=3;" edge="1" parent="1">
          <mxGeometry width="50" height="50" relative="1" as="geometry">
            <mxPoint x="120" y="760" as="sourcePoint" />
            <mxPoint x="760" y="760" as="targetPoint" />
          </mxGeometry>
        </mxCell>
        <mxCell id="JSI8Sby0DyJMvzg88k3_-21" value="&lt;b&gt;Journal&lt;br&gt;Publication&lt;/b&gt;" style="rounded=1;whiteSpace=wrap;html=1;strokeWidth=3;" vertex="1" parent="1">
          <mxGeometry x="60" y="610" width="120" height="60" as="geometry" />
        </mxCell>
        <mxCell id="JSI8Sby0DyJMvzg88k3_-23" value="&lt;b&gt;Book&lt;br style=&quot;border-color: var(--border-color);&quot;&gt;Publication&lt;/b&gt;" style="rounded=1;whiteSpace=wrap;html=1;strokeWidth=3;" vertex="1" parent="1">
          <mxGeometry x="230" y="610" width="120" height="60" as="geometry" />
        </mxCell>
        <mxCell id="JSI8Sby0DyJMvzg88k3_-24" value="&lt;b&gt;Patent&lt;/b&gt;" style="rounded=1;whiteSpace=wrap;html=1;strokeWidth=3;" vertex="1" parent="1">
          <mxGeometry x="380" y="610" width="120" height="60" as="geometry" />
        </mxCell>
        <mxCell id="JSI8Sby0DyJMvzg88k3_-25" value="&lt;b&gt;Faculty&lt;br&gt;Development&lt;br&gt;Program&lt;/b&gt;" style="rounded=1;whiteSpace=wrap;html=1;strokeWidth=3;" vertex="1" parent="1">
          <mxGeometry x="540" y="610" width="120" height="60" as="geometry" />
        </mxCell>
        <mxCell id="JSI8Sby0DyJMvzg88k3_-26" value="&lt;b&gt;Add Faculty&lt;/b&gt;" style="rounded=1;whiteSpace=wrap;html=1;strokeWidth=3;" vertex="1" parent="1">
          <mxGeometry x="700" y="610" width="120" height="60" as="geometry" />
        </mxCell>
        <mxCell id="JSI8Sby0DyJMvzg88k3_-27" value="" style="endArrow=classic;html=1;rounded=0;entryX=0.5;entryY=0;entryDx=0;entryDy=0;exitX=0.5;exitY=1;exitDx=0;exitDy=0;strokeWidth=3;" edge="1" parent="1" source="JSI8Sby0DyJMvzg88k3_-8">
          <mxGeometry width="50" height="50" relative="1" as="geometry">
            <mxPoint x="119.5" y="530" as="sourcePoint" />
            <mxPoint x="120" y="610" as="targetPoint" />
          </mxGeometry>
        </mxCell>
        <mxCell id="JSI8Sby0DyJMvzg88k3_-28" value="" style="endArrow=classic;html=1;rounded=0;entryX=0.5;entryY=0;entryDx=0;entryDy=0;exitX=0.5;exitY=1;exitDx=0;exitDy=0;strokeWidth=3;" edge="1" parent="1">
          <mxGeometry width="50" height="50" relative="1" as="geometry">
            <mxPoint x="759.5" y="520" as="sourcePoint" />
            <mxPoint x="759.5" y="610" as="targetPoint" />
          </mxGeometry>
        </mxCell>
        <mxCell id="JSI8Sby0DyJMvzg88k3_-29" value="" style="endArrow=classic;html=1;rounded=0;entryX=0.5;entryY=0;entryDx=0;entryDy=0;exitX=0.5;exitY=1;exitDx=0;exitDy=0;strokeWidth=3;" edge="1" parent="1">
          <mxGeometry width="50" height="50" relative="1" as="geometry">
            <mxPoint x="599.5" y="520" as="sourcePoint" />
            <mxPoint x="599.5" y="610" as="targetPoint" />
          </mxGeometry>
        </mxCell>
        <mxCell id="JSI8Sby0DyJMvzg88k3_-30" value="" style="endArrow=classic;html=1;rounded=0;entryX=0.5;entryY=0;entryDx=0;entryDy=0;exitX=0.5;exitY=1;exitDx=0;exitDy=0;strokeWidth=3;" edge="1" parent="1">
          <mxGeometry width="50" height="50" relative="1" as="geometry">
            <mxPoint x="439.5" y="520" as="sourcePoint" />
            <mxPoint x="439.5" y="610" as="targetPoint" />
          </mxGeometry>
        </mxCell>
        <mxCell id="JSI8Sby0DyJMvzg88k3_-31" value="" style="endArrow=classic;html=1;rounded=0;entryX=0.5;entryY=0;entryDx=0;entryDy=0;exitX=0.5;exitY=1;exitDx=0;exitDy=0;strokeWidth=3;" edge="1" parent="1">
          <mxGeometry width="50" height="50" relative="1" as="geometry">
            <mxPoint x="273.5" y="520" as="sourcePoint" />
            <mxPoint x="273.5" y="610" as="targetPoint" />
          </mxGeometry>
        </mxCell>
        <mxCell id="JSI8Sby0DyJMvzg88k3_-32" value="" style="endArrow=classic;html=1;rounded=0;strokeWidth=3;" edge="1" parent="1">
          <mxGeometry width="50" height="50" relative="1" as="geometry">
            <mxPoint x="119.5" y="670" as="sourcePoint" />
            <mxPoint x="120" y="760" as="targetPoint" />
          </mxGeometry>
        </mxCell>
        <mxCell id="JSI8Sby0DyJMvzg88k3_-33" value="" style="endArrow=classic;html=1;rounded=0;strokeWidth=3;" edge="1" parent="1">
          <mxGeometry width="50" height="50" relative="1" as="geometry">
            <mxPoint x="759.5" y="670" as="sourcePoint" />
            <mxPoint x="760" y="760" as="targetPoint" />
          </mxGeometry>
        </mxCell>
        <mxCell id="JSI8Sby0DyJMvzg88k3_-34" value="" style="endArrow=classic;html=1;rounded=0;strokeWidth=3;" edge="1" parent="1">
          <mxGeometry width="50" height="50" relative="1" as="geometry">
            <mxPoint x="599.5" y="670" as="sourcePoint" />
            <mxPoint x="600" y="760" as="targetPoint" />
          </mxGeometry>
        </mxCell>
        <mxCell id="JSI8Sby0DyJMvzg88k3_-35" value="" style="endArrow=classic;html=1;rounded=0;strokeWidth=3;" edge="1" parent="1">
          <mxGeometry width="50" height="50" relative="1" as="geometry">
            <mxPoint x="273.5" y="670" as="sourcePoint" />
            <mxPoint x="274" y="760" as="targetPoint" />
          </mxGeometry>
        </mxCell>
        <mxCell id="JSI8Sby0DyJMvzg88k3_-36" value="" style="endArrow=classic;html=1;rounded=0;strokeWidth=3;" edge="1" parent="1">
          <mxGeometry width="50" height="50" relative="1" as="geometry">
            <mxPoint x="439.5" y="670" as="sourcePoint" />
            <mxPoint x="440" y="760" as="targetPoint" />
          </mxGeometry>
        </mxCell>
        <mxCell id="JSI8Sby0DyJMvzg88k3_-37" value="&lt;b&gt;Logout from the system&lt;/b&gt;" style="rounded=1;whiteSpace=wrap;html=1;strokeWidth=3;" vertex="1" parent="1">
          <mxGeometry x="380" y="840" width="120" height="60" as="geometry" />
        </mxCell>
        <mxCell id="JSI8Sby0DyJMvzg88k3_-38" value="" style="endArrow=classic;html=1;rounded=0;entryX=0.5;entryY=0;entryDx=0;entryDy=0;entryPerimeter=0;strokeWidth=3;" edge="1" parent="1" target="JSI8Sby0DyJMvzg88k3_-37">
          <mxGeometry width="50" height="50" relative="1" as="geometry">
            <mxPoint x="439.5" y="760" as="sourcePoint" />
            <mxPoint x="440" y="830" as="targetPoint" />
          </mxGeometry>
        </mxCell>
        <mxCell id="JSI8Sby0DyJMvzg88k3_-39" value="" style="endArrow=classic;html=1;rounded=0;strokeWidth=3;" edge="1" parent="1">
          <mxGeometry width="50" height="50" relative="1" as="geometry">
            <mxPoint x="500" y="869.5" as="sourcePoint" />
            <mxPoint x="599" y="869.5" as="targetPoint" />
          </mxGeometry>
        </mxCell>
        <mxCell id="JSI8Sby0DyJMvzg88k3_-40" value="" style="ellipse;whiteSpace=wrap;html=1;aspect=fixed;fillColor=#000000;strokeWidth=3;" vertex="1" parent="1">
          <mxGeometry x="600" y="850" width="40" height="40" as="geometry" />
        </mxCell>
      </root>
    </mxGraphModel>
  </diagram>
</mxfile>
